<svg width="16" height="16" viewBox="0 0 16 16" fill="none" xmlns="http://www.w3.org/2000/svg">
  <path d="M8 0C3.58 0 0 3.58 0 8c0 3.54 2.29 6.54 5.47 7.59.4.07.55-.17.55-.39v-1.5c-2.22.48-2.68-1.07-2.68-1.07-.36-.92-.9-1.17-.9-1.17-.74-.5.06-.49.06-.49.82.06 1.25.84 1.25.84.73 1.25 1.9.89 2.36.68.07-.52.28-.89.51-1.1-1.78-.2-3.64-.89-3.64-3.95 0-.87.31-1.58.82-2.14-.08-.2-.35-1.01.08-2.1 0 0 .67-.21 2.2.84.64-.18 1.32-.27 2-.27s1.36.09 2 .27c1.53-1.05 2.2-.84 2.2-.84.43 1.09.16 1.9.08 2.1.51.56.82 1.27.82 2.14 0 3.06-1.87 3.75-3.65 3.95.29.25.55.74.55 1.5v2.21c0 .22.15.46.56.39C13.71 14.54 16 11.54 16 8c0-4.42-3.58-8-8-8z" fill="white"/>
</svg>
